<svg width="32" height="32" viewBox="0 0 32 32" fill="none" xmlns="http://www.w3.org/2000/svg">
<path d="M7.79984 22.8C8.93317 21.9333 10.1998 21.25 11.5998 20.75C12.9998 20.25 14.4665 20 15.9998 20C17.5332 20 18.9998 20.25 20.3998 20.75C21.7998 21.25 23.0665 21.9333 24.1998 22.8C24.9776 21.8888 25.5832 20.8555 26.0165 19.7C26.4498 18.5444 26.6665 17.3111 26.6665 16C26.6665 13.0444 25.6276 10.5277 23.5498 8.44996C21.4721 6.37218 18.9554 5.33329 15.9998 5.33329C13.0443 5.33329 10.5276 6.37218 8.44984 8.44996C6.37206 10.5277 5.33317 13.0444 5.33317 16C5.33317 17.3111 5.54984 18.5444 5.98317 19.7C6.4165 20.8555 7.02206 21.8888 7.79984 22.8ZM15.9998 17.3333C14.6887 17.3333 13.5832 16.8833 12.6832 15.9833C11.7832 15.0833 11.3332 13.9777 11.3332 12.6666C11.3332 11.3555 11.7832 10.25 12.6832 9.34996C13.5832 8.44996 14.6887 7.99996 15.9998 7.99996C17.3109 7.99996 18.4165 8.44996 19.3165 9.34996C20.2165 10.25 20.6665 11.3555 20.6665 12.6666C20.6665 13.9777 20.2165 15.0833 19.3165 15.9833C18.4165 16.8833 17.3109 17.3333 15.9998 17.3333ZM15.9998 29.3333C14.1554 29.3333 12.4221 28.9833 10.7998 28.2833C9.17762 27.5833 7.7665 26.6333 6.5665 25.4333C5.3665 24.2333 4.4165 22.8222 3.7165 21.2C3.0165 19.5777 2.6665 17.8444 2.6665 16C2.6665 14.1555 3.0165 12.4222 3.7165 10.8C4.4165 9.17774 5.3665 7.76663 6.5665 6.56663C7.7665 5.36663 9.17762 4.41663 10.7998 3.71663C12.4221 3.01663 14.1554 2.66663 15.9998 2.66663C17.8443 2.66663 19.5776 3.01663 21.1998 3.71663C22.8221 4.41663 24.2332 5.36663 25.4332 6.56663C26.6332 7.76663 27.5832 9.17774 28.2832 10.8C28.9832 12.4222 29.3332 14.1555 29.3332 16C29.3332 17.8444 28.9832 19.5777 28.2832 21.2C27.5832 22.8222 26.6332 24.2333 25.4332 25.4333C24.2332 26.6333 22.8221 27.5833 21.1998 28.2833C19.5776 28.9833 17.8443 29.3333 15.9998 29.3333Z" fill="#75757A"/>
</svg>
